<?xml version="1.0" encoding="UTF-8"?>
<!DOCTYPE svg PUBLIC "-//W3C//DTD SVG 1.1//EN" "http://www.w3.org/Graphics/SVG/1.1/DTD/svg11.dtd">
<!-- Creator: CorelDRAW -->
<svg xmlns="http://www.w3.org/2000/svg" xml:space="preserve" width="16.9332mm" height="16.9332mm" version="1.1" style="shape-rendering:geometricPrecision; text-rendering:geometricPrecision; image-rendering:optimizeQuality; fill-rule:evenodd; clip-rule:evenodd"
viewBox="0 0 1693.32 1693.32"
 xmlns:xlink="http://www.w3.org/1999/xlink"
 xmlns:xodm="http://www.corel.com/coreldraw/odm/2003">
 <defs>
  <style type="text/css">
   <![CDATA[
    .fil0 {fill:#2B2A29;fill-rule:nonzero}
   ]]>
  </style>
 </defs>
 <g id="Слой_x0020_1">
  <metadata id="CorelCorpID_0Corel-Layer"/>
  <g>
   <path class="fil0" d="M1233.68 708.46l-969.92 599.59 -44.52 -72.02 969.92 -599.59 44.52 72.02zm231.1 -192.63l-370.57 527.71 -1.81 -17.55 -2.23 -17.28 -2.65 -17.03 -3.07 -16.76 -3.5 -16.51 -3.92 -16.24 -4.33 -15.98 -4.77 -15.72 -5.18 -15.46 -5.6 -15.2 -6.03 -14.94 -6.45 -14.68 -6.87 -14.42 -7.29 -14.15 -7.72 -13.9 -8.13 -13.63 -8.56 -13.37 -8.98 -13.12 -9.41 -12.85 -9.82 -12.59 -10.25 -12.33 -10.67 -12.07 -11.09 -11.81 -11.51 -11.54 -11.93 -11.29 -12.36 -11.02 -12.78 -10.77 -13.2 -10.5 -13.62 -10.25 -14.05 -9.98 -14.46 -9.72 -14.89 -9.46 0 0 637.7 -95.59z"/>
  </g>
 </g>
</svg>
